<?xml version="1.0" standalone="no"?>
<!DOCTYPE svg PUBLIC "-//W3C//DTD SVG 20010904//EN"
 "http://www.w3.org/TR/2001/REC-SVG-20010904/DTD/svg10.dtd">
<svg version="1.0" xmlns="http://www.w3.org/2000/svg"
 width="512.000000pt" height="512.000000pt" viewBox="0 0 512.000000 512.000000"
 preserveAspectRatio="xMidYMid meet">
<metadata>
Created by potrace 1.11, written by Peter Selinger 2001-2013
</metadata>
<g transform="translate(0.000000,512.000000) scale(0.100000,-0.100000)"
fill="#000000" stroke="none">
<path d="M840 4812 c-87 -23 -146 -59 -213 -131 -63 -69 -102 -142 -117 -220
-14 -74 -14 -3698 0 -3772 17 -90 63 -170 137 -239 71 -67 113 -90 208 -115
52 -13 242 -15 1550 -15 1601 0 1535 -2 1650 49 107 47 222 198 245 320 6 34
10 490 10 1240 l0 1186 -105 -105 -105 -105 0 -1085 c0 -1070 -1 -1086 -21
-1130 -24 -53 -59 -92 -114 -129 l-40 -26 -1520 0 -1520 0 -40 26 c-55 36 -99
88 -119 140 -15 40 -16 196 -14 1889 l3 1845 22 40 c25 47 74 95 123 121 34
18 92 19 1545 19 l1510 0 40 -22 c47 -25 95 -74 121 -123 17 -32 19 -65 22
-344 l3 -310 105 105 104 104 0 191 c0 213 -8 274 -46 352 -34 69 -129 171
-192 205 -109 59 -40 57 -1672 56 -1374 0 -1500 -2 -1560 -17z"/>
<path d="M1475 4516 c-107 -27 -195 -99 -241 -199 l-29 -62 0 -1680 0 -1680
27 -57 c37 -80 105 -149 181 -184 l62 -29 1130 0 1130 0 62 29 c76 35 144 104
181 184 l27 57 3 960 2 960 -105 -105 -105 -104 -2 -837 c-3 -828 -3 -838 -24
-865 -11 -15 -33 -37 -48 -48 -27 -21 -32 -21 -1121 -21 -1089 0 -1094 0
-1121 21 -15 11 -37 33 -48 48 l-21 27 0 1644 0 1644 21 27 c11 15 33 37 48
48 27 21 32 21 1121 21 1089 0 1094 0 1121 -21 15 -11 37 -33 48 -48 20 -26
21 -44 26 -377 l5 -349 103 103 104 104 -4 264 -3 264 -29 62 c-47 103 -141
178 -254 202 -79 17 -2178 14 -2247 -3z"/>
<path d="M4595 4176 c-16 -8 -441 -425 -942 -928 -943 -943 -942 -942 -927
-1004 5 -18 1 -23 -25 -29 -25 -5 -33 -14 -42 -48 -28 -102 -87 -332 -85 -334
1 -1 85 19 186 45 l185 47 11 35 c8 24 17 34 29 32 50 -9 91 29 1008 946 l927
927 0 43 c0 60 -16 85 -112 179 -107 104 -145 120 -213 89z m105 -211 l46 -45
-875 -875 -875 -875 -48 47 -48 48 872 872 c480 480 875 873 878 873 2 0 25
-20 50 -45z"/>
<path d="M855 1981 c-81 -38 -125 -111 -125 -208 1 -133 91 -223 225 -223 135
0 225 90 225 225 0 99 -48 174 -132 209 -51 22 -143 20 -193 -3z m151 -162
c37 -41 5 -111 -51 -111 -53 0 -87 68 -54 108 29 35 74 37 105 3z"/>
</g>
</svg>
